<svg width="160" height="48" viewBox="0 0 607 70" fill="none" xmlns="http://www.w3.org/2000/svg">
    <path d="M8.88477 6.125V68H0.447266V0.5H14.5098L53.8408 59.5625L93.1719 0.5H106.619V68H98.1816V7.04785L58.1035 68H49.5781L8.88477 6.125ZM171.087 61.0566C170.999 61.4082 170.34 62.2871 169.109 63.6934C168.23 64.748 167.059 65.6855 165.594 66.5059C164.129 67.2969 162.166 67.9121 159.705 68.3516C157.273 68.8203 154.065 69.0547 150.081 69.0547C144.778 69.0547 140.252 68.7764 136.502 68.2197C132.752 67.6924 129.69 66.8721 127.317 65.7588C124.944 64.6162 123.201 63.166 122.088 61.4082C121.004 59.6504 120.462 57.5557 120.462 55.124C120.462 52.5752 120.755 50.4219 121.341 48.6641C121.956 46.877 122.835 45.3828 123.978 44.1816C125.149 42.9805 126.556 42.043 128.196 41.3691C129.837 40.6953 131.697 40.1826 133.777 39.8311C135.887 39.4795 138.187 39.2598 140.677 39.1719C143.167 39.084 145.818 39.04 148.631 39.04C152.645 39.04 155.999 39.2158 158.694 39.5674C161.39 39.8896 163.587 40.3145 165.286 40.8418C167.015 41.3398 168.318 41.8818 169.197 42.4678C170.076 43.0537 170.706 43.5957 171.087 44.0938C171.087 40.8125 170.94 38.0146 170.647 35.7002C170.384 33.3857 169.93 31.4521 169.285 29.8994C168.67 28.3467 167.864 27.1162 166.868 26.208C165.872 25.2705 164.642 24.5674 163.177 24.0986C161.741 23.6299 160.057 23.3369 158.123 23.2197C156.189 23.0732 153.978 23 151.487 23C147.62 23 144.412 23.1025 141.863 23.3076C139.314 23.4834 137.293 23.8496 135.799 24.4062C134.305 24.9629 133.25 25.7393 132.635 26.7354C132.02 27.7021 131.712 28.9766 131.712 30.5586H123.274C123.274 27.8926 123.743 25.6367 124.681 23.791C125.647 21.9453 127.229 20.4512 129.427 19.3086C131.653 18.1367 134.568 17.2871 138.172 16.7598C141.775 16.2324 146.214 15.9688 151.487 15.9688C156.644 15.9688 161.009 16.3936 164.583 17.2432C168.157 18.0928 171.043 19.5869 173.24 21.7256C175.467 23.8643 177.063 26.75 178.03 30.3828C179.026 33.9863 179.524 38.5566 179.524 44.0938V68H171.087V61.0566ZM151.487 62.375C155.208 62.375 158.313 62.1992 160.804 61.8477C163.323 61.4961 165.345 60.9688 166.868 60.2656C168.392 59.5625 169.476 58.6836 170.12 57.6289C170.765 56.5742 171.087 55.3438 171.087 53.9375C171.087 52.5312 170.706 51.3447 169.944 50.3779C169.212 49.3818 167.967 48.5762 166.209 47.9609C164.48 47.3457 162.181 46.9062 159.31 46.6426C156.438 46.3496 152.894 46.2031 148.675 46.2031C144.456 46.2031 141.043 46.2764 138.436 46.4229C135.857 46.5693 133.865 46.9062 132.459 47.4336C131.053 47.9609 130.101 48.7373 129.603 49.7627C129.134 50.7881 128.899 52.1797 128.899 53.9375C128.899 55.6953 129.148 57.1309 129.646 58.2441C130.174 59.3281 131.229 60.1777 132.811 60.793C134.393 61.4082 136.663 61.833 139.622 62.0674C142.61 62.2725 146.565 62.375 151.487 62.375ZM241.268 68L220.965 46.8184L200.662 68H189.412L215.34 42.248L190.643 17.375H201.893L221.185 36.9307L240.037 17.375H251.287L226.59 42.2041L252.518 68H241.268Z" fill="#9D28FF"/>
    <path d="M293.299 68H284.861V0.5H299.671L361.546 59.5625V0.5H369.983V68H358.733L293.299 7.53125V68ZM382.684 42.3359C382.684 37.1504 383.24 32.8584 384.354 29.46C385.467 26.0615 387.254 23.3662 389.715 21.374C392.176 19.3818 395.369 17.9902 399.295 17.1992C403.221 16.3789 407.996 15.9688 413.621 15.9688C419.246 15.9688 424.021 16.3789 427.947 17.1992C431.873 17.9902 435.066 19.3818 437.527 21.374C439.988 23.3662 441.775 26.0615 442.889 29.46C444.002 32.8584 444.559 37.1504 444.559 42.3359C444.559 47.5215 444.002 51.8281 442.889 55.2559C441.775 58.6836 439.988 61.4082 437.527 63.4297C435.066 65.4512 431.873 66.8867 427.947 67.7363C424.021 68.5566 419.246 68.9668 413.621 68.9668C407.996 68.9668 403.221 68.5566 399.295 67.7363C395.369 66.8867 392.176 65.4512 389.715 63.4297C387.254 61.4082 385.467 58.6836 384.354 55.2559C383.24 51.8281 382.684 47.5215 382.684 42.3359ZM391.121 42.3359C391.121 45.1484 391.224 47.5947 391.429 49.6748C391.634 51.7549 392.015 53.542 392.571 55.0361C393.157 56.5303 393.963 57.7461 394.988 58.6836C396.014 59.6211 397.361 60.3682 399.031 60.9248C400.701 61.4814 402.723 61.8623 405.096 62.0674C407.498 62.2725 410.34 62.375 413.621 62.375C416.434 62.375 418.938 62.3164 421.136 62.1992C423.362 62.0527 425.296 61.7451 426.937 61.2764C428.606 60.8076 430.027 60.1484 431.199 59.2988C432.371 58.4199 433.309 57.2334 434.012 55.7393C434.744 54.2451 435.271 52.4141 435.594 50.2461C435.945 48.0488 436.121 45.4121 436.121 42.3359C436.121 39.3184 435.945 36.7549 435.594 34.6455C435.271 32.5068 434.744 30.7197 434.012 29.2842C433.309 27.8486 432.371 26.7207 431.199 25.9004C430.027 25.0508 428.606 24.4209 426.937 24.0107C425.296 23.5713 423.362 23.293 421.136 23.1758C418.938 23.0586 416.434 23 413.621 23C410.809 23 408.289 23.0586 406.062 23.1758C403.865 23.293 401.932 23.5713 400.262 24.0107C398.621 24.4209 397.215 25.0508 396.043 25.9004C394.871 26.7207 393.919 27.8486 393.187 29.2842C392.483 30.7197 391.956 32.5068 391.604 34.6455C391.282 36.7549 391.121 39.3184 391.121 42.3359ZM475.496 68L448.777 17.375H458.621L481.121 62.375L503.621 17.375H513.465L486.746 68H475.496ZM524.715 17.375H533.152V68H524.715V17.375ZM533.152 8.9375H524.715V0.5H533.152V8.9375ZM597.84 68V39.875C597.84 36.7402 597.605 34.1035 597.137 31.9648C596.668 29.7969 595.73 28.0537 594.324 26.7354C592.918 25.417 590.926 24.4648 588.348 23.8789C585.77 23.293 582.371 23 578.152 23C573.582 23 569.832 23.3369 566.902 24.0107C564.002 24.6846 561.717 25.6367 560.047 26.8672C558.377 28.0977 557.22 29.5771 556.575 31.3057C555.96 33.0342 555.652 34.9531 555.652 37.0625V68H547.215V17.375H555.652V25.8125C556.268 24.377 557.146 23.1465 558.289 22.1211C559.432 21.0664 560.721 20.1729 562.156 19.4404C563.592 18.708 565.145 18.1221 566.814 17.6826C568.484 17.2139 570.154 16.8623 571.824 16.6279C573.494 16.3643 575.105 16.1885 576.658 16.1006C578.24 16.0127 579.676 15.9688 580.965 15.9688C584.715 15.9688 587.938 16.2031 590.633 16.6719C593.357 17.1406 595.657 17.8291 597.532 18.7373C599.437 19.6455 600.96 20.7734 602.103 22.1211C603.245 23.4688 604.124 25.0361 604.739 26.8232C605.384 28.5811 605.809 30.5586 606.014 32.7559C606.219 34.9238 606.321 37.2969 606.321 39.875L606.277 68H597.84Z" fill="#FF0000"/>
</svg>
